<?xml version="1.0" encoding="utf-8"?>
<!-- Generator: Adobe Illustrator 23.1.0, SVG Export Plug-In . SVG Version: 6.00 Build 0)  -->
<svg version="1.1" id="Layer_1" xmlns="http://www.w3.org/2000/svg" xmlns:xlink="http://www.w3.org/1999/xlink" x="0px" y="0px"
	 viewBox="0 0 72 100" style="enable-background:new 0 0 72 100;" xml:space="preserve">
<style type="text/css">
	.st0{fill-rule:evenodd;clip-rule:evenodd;fill:#430098;}
	.st1{fill:#430098;}
</style>
<path class="st0" d="M41.8,88c2.6,0,5.3,1.7,5.3,5.7c0,4-2.7,5.7-5.3,5.7c-2.6,0-5.4-1.7-5.4-5.7C36.4,89.7,39.2,88,41.8,88z
	 M65.8,88.2v6.5c0,1.5,0.5,2.2,1.7,2.2c1.2,0,1.7-0.7,1.7-2.2v-6.5H72v6.5c0,2.9-1.4,4.5-4.6,4.5s-4.6-1.7-4.6-4.5v-6.5H65.8z
	 M53.4,88.2v3.9l3-3.9h3.4l-3.7,4.3l4,6.6h-3.3l-2.6-4.4l-0.8,1v3.4h-2.9V88.2H53.4z M21.1,88.2v2.4h-4.8v1.8h3.4v2.3h-3.4v2h5.1
	v2.4h-8V88.2H21.1z M28.8,88.2c2.8,0,4.5,0.9,4.5,3.6c0,1.7-0.7,2.7-2.2,3.2l2.3,4.2h-3.1l-2.1-3.8h-0.8v3.8h-2.9V88.2H28.8z
	 M2.9,88.2v4.1h3.6v-4.1h2.9v10.9H6.6v-4.4H2.9v4.4H0V88.2H2.9z M41.8,90.4c-1.5,0-2.4,1.2-2.4,3.2c0,2,0.9,3.3,2.4,3.3
	c1.5,0,2.4-1.3,2.4-3.3C44.2,91.7,43.3,90.4,41.8,90.4z M28.7,90.6h-1.3v2.5h1.3c1.2,0,1.7-0.3,1.7-1.3S30,90.6,28.7,90.6z"/>
<path class="st1" d="M64.8,0H7.2C3.2,0,0,3.2,0,7.2v65.6c0,4,3.2,7.2,7.2,7.2h57.6c4,0,7.2-3.2,7.2-7.2V7.2C72,3.2,68.8,0,64.8,0z
	 M18,68V52l9,8L18,68z M46,68V44.1c0-1.9-0.9-4.1-5-4.1c-8.1,0-17.3,4.1-17.3,4.1L18,46.7V12h8v22.7c4-1.3,9.6-2.7,15-2.7
	c4.9,0,7.9,1.9,9.5,3.6C54,39.1,54,43.5,54,44v24H46z M48,25h-8c3.1-4.1,5.1-8.5,6-13h8C53.5,16.5,51.6,20.9,48,25z"/>
</svg>
